<?xml version="1.0" standalone="no"?>
<!DOCTYPE svg PUBLIC "-//W3C//DTD SVG 20010904//EN"
 "http://www.w3.org/TR/2001/REC-SVG-20010904/DTD/svg10.dtd">
<svg version="1.0" xmlns="http://www.w3.org/2000/svg"
 width="2400.000000pt" height="2400.000000pt" viewBox="0 0 2400.000000 2400.000000"
 preserveAspectRatio="xMidYMid meet">
<metadata>
Created by potrace 1.14, written by Peter Selinger 2001-2017
</metadata>
<g transform="translate(0.000000,2400.000000) scale(0.100000,-0.100000)"
fill="#000000" stroke="none">
<path d="M16028 23166 c-108 -38 -218 -138 -347 -316 -22 -30 -44 -59 -48 -65
-13 -16 -67 -98 -79 -120 -6 -11 -31 -54 -54 -95 -135 -234 -295 -559 -421
-858 -23 -53 -49 -115 -59 -137 -63 -141 -370 -940 -505 -1315 -35 -96 -68
-186 -74 -200 -13 -33 -134 -373 -321 -905 -21 -60 -64 -182 -95 -270 -31 -88
-76 -218 -100 -290 -24 -71 -81 -236 -126 -365 -44 -129 -82 -239 -83 -245 -2
-5 -6 -17 -9 -25 -4 -8 -36 -103 -72 -210 -37 -107 -91 -267 -121 -355 -94
-275 -616 -1839 -618 -1850 -1 -5 -4 -14 -7 -20 -4 -5 -10 -23 -14 -40 -9 -34
-10 -34 -17 -55 -14 -35 -122 -364 -193 -585 -42 -132 -80 -249 -85 -260 -8
-19 -191 -579 -196 -600 -1 -5 -43 -133 -93 -283 -50 -151 -91 -277 -91 -280
1 -18 42 96 196 555 92 274 261 777 376 1118 115 341 211 625 212 630 2 6 6
17 9 25 6 14 39 110 186 550 29 85 56 164 61 175 5 11 16 40 24 65 8 25 47
137 86 250 39 113 91 261 115 330 47 135 75 215 137 385 22 61 41 115 43 120
1 6 5 17 8 25 3 8 20 56 37 105 17 50 34 99 39 110 5 11 21 54 35 95 14 41 62
174 106 295 44 121 82 227 85 235 5 22 83 231 95 255 5 11 22 58 39 105 16 47
46 128 66 180 20 52 49 131 66 175 16 44 33 89 38 100 5 11 23 56 39 100 101
267 446 1121 471 1166 5 9 27 58 49 110 44 103 104 232 205 439 198 406 333
595 472 664 108 54 140 41 140 -56 -1 -121 -34 -225 -148 -469 -30 -64 -90
-170 -134 -236 -137 -203 -395 -654 -358 -623 10 8 41 39 69 69 28 30 56 59
63 66 7 7 49 57 94 111 44 55 89 108 98 119 9 11 37 47 61 80 25 33 48 62 51
65 17 14 319 454 319 464 0 3 15 29 34 58 69 109 181 340 225 463 23 68 35
124 37 190 7 145 -61 221 -203 228 -83 4 -202 -16 -255 -44 -23 -12 -23 -12 9
68 41 105 137 290 194 376 91 139 200 227 280 227 163 0 214 -222 129 -559
-20 -80 -16 -81 23 -9 108 197 169 450 138 574 -20 78 -95 174 -166 211 -39
21 -120 25 -167 9z"/>
<path d="M7784 23156 c-75 -27 -163 -120 -191 -203 -31 -87 -13 -233 48 -403
28 -78 111 -250 121 -250 4 0 3 10 -2 23 -24 56 -51 253 -49 353 2 88 6 111
28 156 14 29 37 60 51 70 35 24 93 29 144 12 77 -27 197 -153 273 -289 75
-132 177 -354 168 -363 -1 -2 -39 6 -84 18 -125 32 -224 29 -296 -8 -39 -19
-53 -35 -75 -80 -23 -47 -19 -170 8 -262 83 -277 318 -673 676 -1135 38 -49
77 -97 85 -106 9 -9 25 -27 36 -40 148 -179 231 -267 241 -256 3 3 -11 31 -30
63 -73 127 -97 170 -103 187 -3 9 -9 17 -14 17 -5 0 -9 4 -9 10 0 16 -58 111
-192 315 -163 248 -300 574 -302 718 -1 60 2 71 22 87 27 22 42 20 116 -15
134 -63 266 -246 467 -645 84 -167 139 -284 201 -425 22 -49 51 -114 64 -143
13 -29 24 -55 24 -57 0 -2 11 -28 24 -57 27 -62 23 -51 136 -323 48 -115 104
-253 124 -305 20 -52 41 -104 46 -115 5 -11 51 -126 101 -255 128 -332 132
-341 184 -480 25 -69 50 -134 55 -145 5 -11 32 -83 60 -160 28 -77 55 -149 60
-160 16 -37 100 -272 100 -280 0 -4 6 -21 14 -38 8 -18 21 -52 29 -77 9 -25
21 -58 28 -75 7 -16 13 -34 15 -40 1 -5 39 -111 84 -235 76 -209 177 -490 222
-620 26 -78 78 -221 87 -245 5 -11 21 -56 36 -100 36 -106 112 -325 175 -505
28 -80 64 -183 80 -230 16 -47 57 -166 91 -265 158 -460 240 -701 244 -715 2
-8 45 -134 95 -280 50 -146 109 -321 131 -390 23 -69 49 -147 60 -175 10 -27
47 -135 82 -240 155 -460 192 -565 198 -565 4 0 -2 24 -13 53 -11 28 -22 59
-23 67 -2 8 -15 49 -30 90 -14 41 -27 82 -29 90 -5 18 -245 749 -253 770 -4 8
-7 17 -8 20 -3 13 -206 627 -212 640 -3 8 -7 20 -9 25 -7 29 -416 1245 -643
1910 -224 659 -241 709 -248 725 -3 8 -7 20 -9 25 -3 12 -141 411 -247 715
-170 487 -216 616 -359 1015 -28 77 -71 196 -95 265 -24 69 -48 134 -53 145
-5 11 -41 108 -80 215 -39 107 -75 204 -79 215 -5 11 -28 72 -51 135 -270 741
-614 1541 -820 1905 -83 148 -159 268 -250 399 -82 116 -242 262 -325 294 -43
17 -115 21 -151 8z"/>
<path d="M23227 20744 c-1 -1 -47 -4 -102 -8 -55 -3 -111 -8 -125 -11 -14 -2
-43 -6 -65 -9 -41 -5 -154 -23 -190 -30 -243 -49 -421 -97 -680 -184 -124 -41
-123 -41 -108 -50 41 -26 101 -84 140 -136 112 -148 170 -359 167 -606 -2
-111 -7 -173 -29 -315 -10 -60 -43 -209 -54 -236 -5 -13 -9 -28 -10 -34 -12
-81 -154 -479 -234 -655 -14 -30 -35 -80 -48 -110 -83 -200 -359 -715 -546
-1018 -162 -264 -459 -705 -487 -724 -6 -4 -8 -9 -6 -12 13 -12 504 310 784
514 186 136 598 461 646 510 3 3 36 32 75 65 38 33 94 83 125 111 30 29 69 64
85 79 44 39 271 264 336 331 348 366 639 761 824 1117 63 121 87 174 146 312
44 105 90 261 112 379 17 91 16 269 -2 336 -61 220 -262 354 -566 376 -69 6
-185 10 -188 8z"/>
<path d="M565 20699 c-112 -15 -142 -21 -190 -36 -27 -9 -56 -20 -62 -26 -7
-5 -13 -7 -13 -3 0 3 -18 -5 -40 -19 -22 -14 -43 -25 -48 -25 -17 0 -119 -107
-145 -151 -14 -24 -31 -64 -38 -89 -7 -25 -14 -52 -17 -60 -10 -37 -8 -231 4
-295 24 -134 61 -262 103 -360 58 -135 82 -187 132 -287 32 -64 76 -147 99
-184 22 -36 40 -68 40 -69 0 -19 319 -468 376 -530 11 -11 39 -45 64 -75 191
-236 581 -623 895 -890 28 -23 61 -52 75 -64 14 -11 74 -61 135 -109 60 -48
119 -95 129 -104 37 -30 361 -270 425 -314 35 -24 82 -57 105 -73 207 -144
541 -356 562 -356 3 0 -5 14 -18 31 -386 517 -824 1262 -1063 1809 -131 301
-264 692 -289 851 -3 20 -8 42 -10 50 -5 13 -13 58 -21 119 -17 126 -23 329
-11 415 30 219 95 370 211 489 24 25 58 54 75 64 l31 19 -138 46 c-136 45
-364 113 -406 121 -12 2 -71 15 -132 29 -121 28 -324 62 -425 73 -93 9 -336
11 -395 3z"/>
<path d="M21450 20249 c-126 -24 -285 -73 -395 -123 -108 -49 -146 -66 -151
-66 -22 0 -646 -326 -884 -463 -106 -60 -323 -208 -463 -314 -41 -32 -88 -67
-103 -78 -15 -11 -32 -24 -38 -30 -7 -5 -32 -26 -56 -45 -57 -44 -50 -39 -215
-172 -150 -120 -324 -265 -365 -302 -14 -12 -81 -69 -150 -126 -69 -57 -127
-107 -130 -110 -3 -3 -54 -48 -115 -100 -60 -52 -117 -101 -126 -109 -9 -9
-40 -36 -70 -61 -46 -39 -203 -175 -235 -205 -6 -5 -42 -37 -79 -70 -38 -33
-73 -64 -79 -70 -6 -5 -65 -57 -131 -115 -66 -58 -142 -126 -170 -151 -27 -26
-68 -62 -89 -80 -22 -19 -52 -45 -66 -59 -15 -14 -48 -45 -76 -69 -87 -77
-207 -185 -274 -246 -148 -136 -263 -241 -284 -260 -12 -11 -62 -56 -110 -100
-49 -44 -98 -89 -110 -100 -26 -23 -203 -186 -251 -230 -17 -16 -81 -75 -140
-130 -59 -55 -120 -111 -135 -125 -15 -14 -74 -68 -131 -121 -57 -53 -128
-118 -157 -145 -55 -50 -98 -91 -219 -204 -250 -235 -342 -322 -373 -350 -19
-18 -97 -91 -174 -164 -76 -72 -155 -146 -175 -165 -30 -28 -256 -243 -391
-371 -30 -29 -250 -239 -490 -470 -607 -582 -1253 -1228 -1333 -1334 l-28 -35
31 17 c16 9 30 20 30 25 0 4 5 7 10 7 6 0 52 26 103 59 83 53 503 300 702 413
78 44 265 142 275 144 3 0 32 13 65 28 33 15 83 36 110 47 28 11 59 24 70 29
24 11 494 157 517 160 7 2 227 78 343 120 33 12 78 30 100 40 22 10 80 34 129
54 92 38 297 138 401 196 253 140 540 374 722 588 82 97 84 100 128 172 55 89
77 138 64 145 -5 4 -68 -27 -139 -69 -71 -42 -132 -76 -136 -76 -3 0 -18 -8
-32 -19 -132 -92 -682 -354 -793 -376 -9 -2 -34 -8 -55 -14 -54 -15 -128 -14
-168 3 -49 20 -63 62 -47 140 49 245 380 650 1051 1288 164 155 174 165 308
286 125 113 132 119 196 175 33 29 69 61 80 72 12 11 53 47 91 80 39 33 93 79
120 104 79 69 91 80 250 213 174 145 525 432 690 564 39 31 79 63 90 73 11 9
67 52 125 96 58 44 110 85 116 90 6 6 47 37 90 70 43 33 81 62 84 65 3 3 104
79 225 169 121 91 236 176 255 190 19 14 44 33 56 41 13 8 80 56 151 106 178
127 457 315 577 388 150 92 243 132 376 163 31 7 136 6 175 -1 173 -33 297
-200 332 -447 9 -65 9 -295 0 -363 -14 -105 -18 -132 -23 -148 -3 -9 -6 -25
-8 -35 -20 -100 -91 -318 -134 -411 -14 -31 -27 -59 -27 -62 -1 -6 -58 -117
-84 -163 -28 -50 -119 -194 -135 -214 -8 -10 -45 -56 -82 -103 -193 -242 -422
-415 -717 -540 -67 -28 -135 -58 -152 -65 -16 -7 -95 -41 -175 -75 -80 -35
-178 -78 -218 -96 -41 -19 -75 -34 -77 -34 -4 0 -118 -52 -273 -126 -63 -30
-117 -54 -119 -54 -9 0 -661 -325 -763 -381 -280 -151 -461 -274 -443 -301 8
-15 74 -8 221 21 81 16 161 32 177 35 32 5 377 74 410 82 11 2 34 7 50 9 17 3
38 8 47 11 9 3 25 6 35 8 10 2 45 11 79 20 33 8 71 18 85 20 13 2 24 5 24 6 0
1 7 3 16 5 215 42 849 243 1079 342 19 8 44 19 55 24 403 172 769 382 1005
576 8 7 47 38 85 69 188 152 482 438 636 619 184 215 373 482 507 716 57 99
192 362 192 373 0 3 11 29 25 58 70 152 191 502 220 637 2 9 13 54 24 101 19
79 52 260 65 358 3 23 8 59 11 80 22 165 21 415 -2 517 -3 17 -7 37 -9 45 -1
8 -9 35 -18 60 -75 203 -236 277 -496 229z"/>
<path d="M2336 20228 c-171 -25 -272 -141 -312 -358 -13 -76 -13 -411 1 -475
3 -16 8 -47 10 -70 7 -77 17 -141 42 -260 13 -66 26 -133 29 -150 3 -16 9 -41
14 -55 5 -14 16 -54 25 -90 78 -314 280 -779 477 -1095 27 -44 55 -89 61 -100
64 -106 250 -355 392 -524 125 -150 403 -425 546 -542 35 -29 69 -57 74 -63 6
-6 64 -52 130 -101 66 -50 122 -92 125 -95 10 -11 197 -128 290 -182 185 -108
445 -233 635 -307 44 -18 89 -36 100 -41 52 -23 341 -121 493 -166 181 -55
519 -143 667 -175 33 -7 65 -14 70 -15 6 -2 57 -12 115 -24 58 -12 114 -23
125 -26 11 -2 34 -7 50 -10 17 -3 62 -11 100 -19 39 -8 131 -25 205 -39 74
-14 149 -28 165 -31 99 -18 132 -14 120 16 -3 8 -29 31 -58 53 -60 44 -263
166 -276 166 -5 0 -11 3 -13 8 -4 9 -36 26 -353 186 -236 119 -318 159 -555
269 -73 35 -385 176 -445 202 -16 7 -50 22 -75 33 -25 11 -117 50 -205 87
-430 181 -493 214 -660 344 -159 124 -339 326 -460 516 -41 64 -148 270 -179
344 -42 100 -108 303 -122 375 -2 12 -6 32 -9 46 -85 424 -20 770 171 901 76
52 132 68 231 64 200 -7 339 -77 832 -414 117 -80 224 -152 237 -159 13 -7 24
-17 24 -23 0 -5 4 -9 10 -9 23 0 708 -512 1095 -819 200 -158 635 -512 735
-597 14 -12 108 -93 210 -180 102 -87 190 -163 196 -168 6 -6 37 -33 70 -61
47 -40 158 -138 270 -240 369 -333 743 -703 962 -952 341 -387 476 -691 329
-743 -67 -23 -230 4 -352 60 -11 5 -65 28 -120 51 -55 23 -163 75 -240 114
-147 75 -154 79 -385 210 -80 45 -165 92 -189 104 l-44 23 7 -29 c20 -82 181
-297 333 -444 316 -307 672 -520 1198 -719 33 -12 74 -28 90 -35 58 -24 445
-147 505 -160 9 -2 74 -22 145 -45 231 -76 425 -160 603 -262 46 -27 85 -48
87 -48 1 0 53 -29 115 -65 62 -36 114 -65 116 -65 2 0 122 -71 266 -157 143
-87 274 -165 289 -174 16 -9 37 -23 46 -30 34 -27 -27 49 -105 132 -151 162
-667 671 -1062 1049 -101 96 -223 213 -271 260 -49 47 -117 112 -152 145 -145
137 -393 372 -422 400 -18 17 -94 89 -170 160 -76 72 -149 141 -164 154 -14
13 -65 60 -112 105 -103 97 -290 272 -339 316 -35 32 -90 83 -225 210 -38 36
-126 117 -195 180 -68 63 -147 136 -175 162 -27 26 -59 55 -71 65 -12 10 -66
59 -120 109 -54 50 -112 104 -129 119 -16 14 -50 46 -75 69 -25 23 -124 113
-220 200 -96 88 -215 196 -264 240 -49 45 -98 89 -110 99 -30 27 -154 137
-190 171 -17 15 -51 47 -76 70 -40 36 -144 128 -249 221 -19 17 -44 39 -55 50
-12 11 -57 51 -101 90 -44 38 -82 72 -85 75 -3 3 -61 54 -130 114 -69 60 -141
123 -160 140 -19 17 -70 62 -114 99 -43 37 -84 73 -91 80 -7 7 -36 32 -65 56
-29 25 -58 50 -64 56 -6 6 -23 19 -37 30 -14 11 -54 46 -90 77 -35 31 -116
100 -179 153 -63 53 -126 107 -140 119 -14 12 -77 64 -140 116 -63 52 -117 97
-120 100 -3 3 -63 53 -135 110 -71 57 -148 119 -170 138 -55 45 -41 35 -268
205 -309 233 -407 295 -792 502 -708 381 -1111 529 -1349 493z"/>
<path d="M19450 18207 c-3 -3 -25 -7 -50 -10 -123 -13 -297 -105 -605 -320
-71 -50 -155 -110 -185 -133 -30 -24 -118 -91 -195 -150 -77 -59 -142 -110
-145 -114 -3 -3 -27 -24 -55 -45 -80 -64 -311 -254 -355 -291 -26 -23 -80 -68
-171 -144 -66 -55 -399 -344 -569 -494 -69 -60 -136 -120 -150 -132 -14 -12
-53 -47 -87 -78 -34 -30 -74 -66 -89 -78 -14 -13 -38 -34 -53 -48 -22 -21
-102 -92 -205 -185 -13 -11 -67 -60 -122 -110 -54 -49 -118 -108 -143 -130
-25 -22 -56 -51 -71 -65 -15 -14 -73 -68 -130 -120 -57 -52 -117 -108 -135
-125 -17 -16 -82 -77 -143 -134 -246 -228 -318 -300 -292 -294 24 6 160 91
208 130 12 10 41 32 64 50 24 18 115 87 203 155 88 67 288 217 445 335 157
117 290 216 295 221 38 30 298 211 380 265 194 126 398 218 645 290 63 19 283
76 319 83 83 17 344 89 441 122 394 134 745 361 991 642 289 330 385 693 222
845 -39 36 -117 62 -193 64 -36 1 -68 0 -70 -2z"/>
<path d="M4420 18180 c-184 -37 -251 -212 -173 -455 127 -398 567 -806 1109
-1031 134 -55 247 -91 444 -139 8 -2 80 -20 160 -40 80 -20 161 -40 180 -45
270 -63 566 -185 771 -318 49 -31 174 -117 179 -122 3 -3 25 -19 50 -35 112
-75 539 -392 945 -702 6 -5 28 -21 50 -37 22 -17 42 -33 45 -36 11 -13 277
-198 307 -214 17 -9 34 -12 37 -8 4 7 -32 44 -199 197 -16 16 -81 76 -144 134
-63 58 -119 111 -125 116 -12 11 -223 203 -242 220 -9 9 -140 128 -223 204
-14 13 -59 53 -100 90 -41 36 -84 75 -97 86 -54 49 -285 254 -319 284 -81 70
-180 158 -195 171 -8 8 -44 40 -80 70 -35 30 -71 62 -80 70 -8 8 -40 35 -70
60 -30 25 -61 52 -70 60 -9 8 -37 33 -64 55 -27 22 -58 49 -70 60 -40 36 -136
117 -164 139 -15 11 -29 23 -32 26 -3 3 -45 39 -95 80 -49 41 -92 77 -95 81
-3 3 -106 86 -230 185 -370 296 -590 457 -890 650 -64 42 -224 113 -288 130
-72 18 -180 24 -232 14z"/>
<path d="M22920 17325 c-110 -23 -179 -51 -370 -148 -107 -55 -199 -103 -205
-107 -5 -4 -53 -30 -105 -57 -52 -28 -115 -62 -140 -75 -25 -14 -76 -42 -115
-63 -307 -166 -1091 -608 -1108 -624 -5 -5 10 -38 32 -74 141 -231 226 -475
260 -747 12 -97 12 -328 0 -405 -20 -129 -25 -158 -40 -215 -6 -25 -12 -54
-15 -65 -2 -11 -15 -56 -28 -100 -113 -370 -279 -692 -527 -1021 -95 -126
-105 -143 -81 -138 37 9 412 131 437 143 11 5 63 25 115 45 307 115 718 312
953 458 43 26 81 48 83 48 3 0 38 23 79 50 41 28 77 50 80 50 3 0 11 5 18 10
7 6 44 33 82 60 39 27 75 53 80 57 6 4 37 28 70 53 33 25 62 47 65 50 3 3 18
16 34 28 134 103 379 346 501 498 275 342 498 805 570 1179 3 17 8 41 10 55
19 93 26 361 12 457 -43 294 -203 514 -426 584 -79 25 -239 32 -321 14z"/>
<path d="M880 17298 c-182 -20 -332 -120 -427 -283 -41 -69 -85 -187 -97 -255
-3 -19 -9 -55 -13 -80 -9 -51 -8 -293 1 -359 9 -66 27 -165 41 -221 12 -46 15
-58 34 -125 63 -214 211 -526 350 -740 31 -48 123 -178 131 -185 3 -3 25 -30
50 -60 76 -93 92 -110 200 -219 100 -101 200 -192 265 -242 17 -13 35 -28 41
-34 11 -10 29 -24 127 -99 48 -37 161 -114 358 -243 19 -13 40 -23 47 -23 7 0
12 -3 12 -7 0 -5 10 -13 23 -19 12 -6 78 -42 147 -80 400 -221 864 -415 1288
-539 61 -18 112 -30 112 -26 0 3 -15 22 -33 42 -198 224 -429 621 -549 943
-16 45 -31 86 -32 91 -2 6 -14 48 -29 95 -23 75 -39 135 -53 205 -2 11 -6 31
-9 45 -34 156 -39 480 -10 590 2 8 7 34 10 57 24 174 135 461 239 622 l44 68
-182 104 c-99 57 -201 115 -226 128 -25 13 -57 32 -72 43 -16 11 -28 17 -28
14 0 -3 -24 9 -52 27 -29 18 -66 39 -83 47 -16 8 -41 22 -55 31 -14 9 -65 38
-115 64 -49 26 -103 56 -120 65 -43 25 -130 72 -216 118 -41 22 -99 53 -129
69 -448 243 -603 317 -725 348 -107 27 -174 33 -265 23z"/>
<path d="M20497 15824 c-1 -1 -24 -4 -52 -8 -67 -8 -254 -56 -395 -101 -998
-321 -1663 -577 -2545 -980 -128 -58 -259 -121 -483 -232 -242 -120 -281 -141
-677 -355 -259 -141 -713 -349 -1120 -514 -60 -25 -119 -49 -130 -54 -11 -5
-78 -32 -150 -60 -71 -28 -139 -55 -150 -60 -31 -14 -535 -210 -541 -210 -3 0
-20 -6 -37 -14 -18 -8 -106 -42 -197 -76 -91 -34 -174 -65 -185 -69 -45 -19
-105 -42 -205 -80 -217 -82 -426 -163 -460 -178 -19 -8 -44 -19 -55 -23 -332
-134 -364 -148 -425 -189 -25 -17 -43 -31 -40 -32 12 -2 184 -20 240 -24 42
-3 88 -8 215 -21 121 -12 144 -14 210 -19 121 -9 198 -16 245 -20 39 -4 108
-9 265 -20 22 -1 81 -5 130 -9 377 -28 837 -50 1040 -50 106 0 363 12 405 18
14 2 52 7 85 11 32 4 66 8 75 10 8 1 35 6 60 9 241 33 524 120 576 177 14 16
13 18 -18 27 -18 6 -53 13 -78 16 -45 6 -64 9 -175 21 -33 4 -71 8 -85 10 -14
2 -54 7 -90 10 -36 4 -74 9 -85 11 -11 2 -58 11 -105 20 -173 33 -293 81 -354
141 -49 50 -117 165 -113 192 9 56 90 120 343 271 66 39 126 75 134 80 8 6 22
13 30 17 8 4 95 53 192 110 98 57 181 103 185 103 3 0 14 6 22 14 15 12 130
77 178 100 13 6 23 14 23 19 0 4 4 7 9 7 5 0 64 32 132 72 68 39 142 81 164
93 22 12 76 41 120 65 44 24 103 56 130 71 151 82 648 319 670 319 3 0 24 9
48 20 122 56 468 167 607 194 14 2 50 10 80 16 154 31 426 34 525 6 33 -9 65
-18 71 -19 6 -2 40 -17 77 -35 195 -96 312 -307 323 -584 7 -186 -63 -347
-223 -511 -195 -201 -502 -382 -938 -555 -100 -40 -450 -159 -535 -183 -25 -7
-47 -13 -50 -14 -3 -1 -25 -7 -50 -14 -25 -7 -52 -15 -60 -17 -8 -2 -76 -19
-150 -39 -134 -35 -155 -40 -207 -50 -16 -3 -41 -10 -58 -15 -16 -5 -68 -16
-115 -25 -138 -25 -124 -38 45 -39 84 0 260 10 302 18 10 2 52 7 93 11 41 4
82 8 90 10 14 2 131 18 155 20 20 2 121 17 140 21 34 7 67 13 135 23 36 6 76
13 90 16 14 3 41 8 60 11 64 12 74 14 155 30 44 8 91 18 105 20 14 3 53 11 88
19 34 8 74 17 90 20 43 7 348 84 447 112 50 14 95 26 100 27 99 23 470 151
635 221 452 188 816 494 1068 898 66 105 156 291 197 407 21 58 40 112 43 120
3 8 6 20 7 25 2 6 10 37 18 70 9 33 18 72 21 88 4 15 9 39 12 55 22 107 33
244 29 392 -2 91 -6 175 -8 186 -3 12 -8 38 -11 59 -33 208 -119 334 -246 360
-33 7 -128 14 -133 9z"/>
<path d="M3393 15789 c-139 -27 -226 -156 -257 -379 -3 -19 -8 -55 -11 -80
-14 -97 -8 -359 11 -454 2 -11 6 -38 10 -61 33 -225 171 -585 299 -780 25 -37
45 -70 45 -72 0 -3 35 -50 77 -106 152 -200 383 -410 603 -547 88 -55 257
-142 300 -155 14 -4 30 -11 35 -15 15 -11 202 -82 340 -130 187 -64 627 -187
770 -214 19 -4 63 -14 160 -37 22 -5 51 -11 65 -13 14 -3 50 -10 80 -16 30 -6
64 -13 75 -15 46 -9 353 -64 390 -69 22 -4 54 -8 70 -11 103 -16 318 -44 385
-50 36 -3 81 -8 100 -10 159 -18 330 -21 390 -6 l35 8 -40 8 c-22 4 -89 19
-150 32 -60 14 -117 26 -125 28 -8 2 -62 15 -120 30 -58 14 -113 28 -123 30
-10 2 -27 7 -37 10 -10 3 -27 7 -37 9 -10 2 -58 16 -108 31 -49 14 -99 28
-109 30 -45 10 -420 141 -531 185 -681 273 -1045 572 -1115 914 -11 55 -9 189
5 256 45 226 145 376 308 459 42 22 77 39 77 36 0 -2 18 2 39 10 63 22 98 26
241 30 240 6 499 -48 865 -180 388 -141 755 -322 1410 -695 171 -97 330 -188
355 -202 107 -60 461 -265 520 -302 174 -109 240 -167 240 -210 0 -29 -83
-163 -123 -199 -51 -45 -130 -80 -252 -111 -86 -22 -110 -26 -200 -40 -23 -4
-50 -8 -60 -10 -11 -2 -49 -7 -85 -11 -36 -3 -76 -8 -90 -10 -14 -2 -54 -6
-90 -10 -148 -16 -186 -23 -200 -40 -15 -18 25 -48 108 -79 59 -22 186 -60
239 -71 177 -36 190 -38 318 -55 123 -16 157 -19 285 -26 158 -10 341 -9 540
0 85 5 184 10 220 11 80 4 309 19 460 30 41 3 109 8 150 10 41 3 95 7 120 9
25 2 81 7 125 11 44 3 100 8 125 10 25 3 72 7 105 10 76 6 181 15 220 19 17 2
68 7 115 11 47 4 99 9 115 11 17 2 59 6 95 9 203 17 210 19 175 46 -46 37
-227 115 -560 244 -181 69 -346 133 -365 140 -46 18 -318 121 -395 150 -468
174 -1192 458 -1380 540 -16 8 -54 23 -83 34 -239 94 -694 310 -982 466 -325
176 -577 303 -988 496 -46 22 -201 91 -345 155 -144 63 -271 119 -282 124 -11
5 -87 37 -170 71 -515 210 -856 337 -1390 515 -474 157 -693 223 -805 239 -63
10 -169 12 -207 4z"/>
<path d="M18240 14424 c-36 -7 -78 -15 -95 -18 -67 -12 -95 -18 -200 -46 -60
-16 -157 -45 -215 -65 -58 -20 -109 -38 -115 -39 -5 -2 -19 -6 -30 -11 -11 -4
-51 -19 -90 -33 -38 -14 -74 -29 -80 -34 -5 -4 -15 -8 -22 -8 -17 0 -399 -165
-568 -245 -521 -248 -1121 -588 -1282 -726 -26 -22 -29 -28 -15 -31 9 -2 33
-1 52 3 19 4 46 10 60 13 41 8 214 46 233 51 28 8 60 16 87 21 14 3 39 9 56
15 17 5 40 11 50 13 37 8 151 36 244 61 187 51 326 84 400 95 104 15 268 11
380 -12 52 -10 111 -21 130 -24 19 -3 38 -8 41 -10 19 -11 149 -19 324 -18
200 1 233 3 390 28 376 60 763 267 909 487 66 100 84 214 47 294 -50 107 -211
216 -361 243 -72 14 -247 11 -330 -4z"/>
<path d="M5480 14413 c-95 -14 -198 -58 -280 -118 -149 -109 -173 -266 -66
-425 29 -43 114 -133 166 -175 113 -91 330 -200 505 -253 93 -28 177 -47 250
-57 22 -3 47 -8 55 -10 65 -19 458 -27 560 -12 30 5 107 19 170 32 255 52 334
53 585 11 17 -3 104 -25 195 -50 162 -43 511 -131 560 -140 14 -3 81 -17 150
-31 188 -40 183 -40 169 -18 -21 34 -175 136 -429 283 -256 150 -351 200 -695
369 -250 123 -380 182 -710 322 -56 24 -108 43 -185 70 -124 44 -317 108 -343
114 -12 2 -47 12 -77 20 -30 8 -98 24 -150 35 -52 10 -108 22 -125 25 -36 8
-270 14 -305 8z"/>
<path d="M12186 13393 c-6 -14 -5 -15 5 -6 7 7 10 15 7 18 -3 3 -9 -2 -12 -12z"/>
<path d="M11938 13254 c-87 -47 -172 -211 -182 -351 -6 -91 28 -149 110 -188
128 -61 324 -24 368 70 24 51 25 94 5 174 -57 226 -190 356 -301 295z"/>
<path d="M21147 12724 c-1 -1 -43 -5 -92 -9 -144 -10 -260 -21 -335 -30 -19
-2 -57 -7 -85 -10 -81 -9 -115 -13 -143 -19 -15 -3 -47 -8 -72 -11 -25 -3 -55
-7 -66 -9 -12 -2 -39 -7 -60 -10 -22 -3 -50 -8 -64 -11 -14 -2 -38 -7 -55 -10
-37 -6 -121 -25 -155 -35 l-25 -8 30 -7 c86 -20 237 -71 289 -96 118 -59 244
-157 316 -246 86 -107 176 -308 205 -458 5 -22 10 -47 11 -55 19 -89 26 -420
11 -511 -47 -287 -186 -524 -422 -723 -51 -43 -59 -49 -155 -113 -58 -39 -235
-132 -285 -151 -155 -57 -210 -76 -294 -98 -94 -26 -116 -31 -136 -34 -13 -1
198 -94 289 -126 174 -63 470 -151 531 -159 11 -2 38 -8 60 -13 22 -6 54 -13
70 -16 17 -3 55 -10 85 -16 106 -19 164 -27 265 -36 39 -3 81 -8 95 -10 30 -5
345 -5 411 0 42 4 82 8 184 22 22 3 56 9 75 14 19 5 51 12 70 15 47 8 101 22
185 50 244 79 472 226 670 431 102 106 91 93 171 199 84 113 103 144 187 298
85 156 180 439 203 602 24 174 25 372 4 475 -6 30 -14 68 -17 85 -9 51 -61
184 -98 250 -153 275 -413 431 -885 534 -47 10 -72 14 -205 30 -169 21 -228
24 -493 25 -150 1 -274 1 -275 0z"/>
<path d="M2458 12695 c-1 -1 -61 -5 -133 -9 -71 -3 -146 -8 -165 -11 -19 -2
-55 -7 -79 -10 -242 -32 -465 -94 -631 -175 -313 -154 -477 -370 -545 -720
-11 -54 -14 -339 -5 -395 4 -27 11 -72 14 -100 25 -184 146 -509 259 -690 202
-327 431 -554 718 -713 101 -56 279 -123 394 -147 247 -54 307 -60 585 -60
223 0 299 6 490 36 292 46 716 167 949 271 25 12 51 22 57 23 5 2 32 14 58 27
l48 24 -59 13 c-168 36 -373 110 -521 187 -177 93 -262 154 -388 279 -200 197
-317 436 -341 697 -11 125 -6 305 12 411 22 126 30 160 50 222 95 293 286 503
550 606 37 15 30 13 143 45 50 15 92 30 92 34 0 4 -12 10 -27 13 -174 31 -272
49 -293 52 -14 2 -45 7 -70 11 -25 4 -54 8 -65 9 -11 2 -56 8 -100 14 -44 5
-105 13 -135 17 -58 6 -75 8 -205 18 -44 4 -98 9 -119 12 -42 6 -532 14 -538
9z"/>
<path d="M11985 12580 c-91 -21 -161 -113 -206 -270 -25 -86 -34 -168 -33
-320 0 -180 5 -222 55 -485 38 -199 28 -152 93 -413 l57 -224 -20 -31 c-51
-83 -116 -332 -136 -522 -4 -33 -8 -67 -10 -75 -4 -14 -8 -58 -20 -195 -29
-340 -33 -943 -10 -1395 11 -219 14 -263 20 -350 3 -47 8 -119 10 -160 6 -99
13 -202 19 -270 3 -30 8 -89 11 -130 2 -41 7 -100 10 -130 2 -30 7 -81 10
-113 2 -32 7 -77 10 -100 3 -23 7 -76 10 -118 2 -41 7 -98 10 -125 3 -27 7
-74 11 -104 3 -30 7 -71 9 -90 2 -19 6 -69 10 -110 3 -41 7 -91 10 -110 2 -19
6 -62 9 -95 8 -77 16 -160 21 -205 2 -19 7 -66 11 -105 3 -38 8 -81 9 -95 2
-14 6 -54 10 -90 10 -110 32 -277 40 -320 6 -26 9 -49 20 -118 4 -24 9 -41 11
-39 7 6 18 67 29 147 3 25 8 61 10 80 7 47 13 102 20 175 3 33 7 80 10 105 3
25 7 68 10 95 3 28 7 70 10 95 2 25 7 79 11 120 3 41 7 91 9 110 2 19 6 69 10
110 3 41 8 95 10 120 2 25 7 74 10 110 8 95 15 179 20 230 3 25 7 77 10 115 3
39 7 95 10 125 6 75 15 191 20 270 3 36 7 97 10 135 18 249 28 422 40 675 22
454 22 1099 1 1355 -2 22 -7 81 -11 130 -4 50 -8 104 -10 120 -9 95 -18 172
-21 190 -2 11 -7 40 -10 65 -19 145 -77 369 -116 447 -24 48 -24 53 -4 133 2
8 11 42 19 75 9 33 18 71 21 85 4 23 22 105 31 140 9 32 36 157 41 185 2 17 7
37 9 45 2 8 6 29 9 45 16 94 26 166 31 215 4 30 8 71 10 90 6 54 6 280 0 325
-40 294 -163 477 -300 445z"/>
<path d="M18768 12415 c-2 -2 -70 -6 -152 -10 -82 -4 -157 -8 -166 -10 -10 -2
-61 -6 -113 -10 -52 -3 -104 -7 -114 -9 -11 -3 -53 -7 -95 -10 -41 -4 -84 -8
-94 -10 -11 -2 -55 -7 -99 -11 -44 -4 -87 -9 -95 -10 -8 -2 -44 -6 -80 -9 -36
-4 -99 -11 -140 -16 -109 -13 -225 -23 -420 -35 -63 -4 -140 -8 -170 -10 -339
-23 -1364 -23 -1995 0 -60 2 -182 7 -270 10 -250 9 -552 22 -710 30 -38 2
-140 7 -225 10 -760 34 -1020 37 -1053 12 -15 -11 8 -21 170 -76 288 -96 590
-215 813 -318 129 -60 395 -195 459 -232 28 -17 54 -31 56 -31 6 0 167 -101
270 -170 93 -62 204 -147 305 -231 96 -81 252 -153 399 -184 65 -14 247 -15
302 -1 100 24 285 104 322 140 7 6 25 20 42 30 56 37 207 189 193 197 -12 6
-66 17 -121 24 -184 22 -480 102 -612 165 -73 35 -153 103 -180 154 -18 34
-18 36 -1 55 24 26 114 46 301 66 28 3 70 7 95 10 25 3 79 7 120 10 41 3 100
7 130 10 30 2 89 7 130 11 41 3 91 7 110 9 19 2 76 6 125 9 50 4 113 9 140 11
48 5 89 8 260 20 44 3 98 8 120 10 22 2 81 7 130 10 50 3 106 8 125 11 207 26
738 25 920 -1 200 -29 227 -35 365 -72 324 -87 556 -235 642 -410 40 -82 39
-178 -1 -249 -40 -68 -100 -123 -182 -166 -64 -33 -175 -73 -234 -84 -14 -3
-32 -7 -40 -9 -8 -2 -44 -7 -80 -11 -36 -3 -67 -7 -70 -9 -14 -8 -296 -19
-485 -18 -195 0 -319 6 -405 18 -19 2 -55 7 -80 10 -170 22 -356 74 -488 137
-46 22 -86 38 -88 35 -2 -2 28 -38 67 -80 114 -124 369 -308 631 -457 155 -87
464 -243 508 -255 3 -1 21 -9 40 -17 68 -30 115 -50 130 -53 8 -2 46 -15 83
-29 125 -48 333 -96 482 -112 112 -12 409 -6 491 10 12 2 45 7 74 11 29 4 62
9 74 11 12 2 41 7 66 10 25 3 52 7 60 9 8 3 33 7 55 11 142 21 280 65 385 122
463 251 658 811 475 1358 -101 300 -285 481 -590 579 -60 19 -123 37 -140 40
-96 16 -218 35 -275 41 -61 6 -596 14 -602 9z"/>
<path d="M4837 12394 c-1 -1 -50 -5 -108 -8 -58 -4 -116 -9 -130 -11 -13 -2
-44 -6 -69 -9 -25 -3 -56 -8 -70 -11 -107 -21 -143 -30 -209 -50 -268 -80
-456 -243 -561 -484 -18 -41 -33 -79 -34 -85 -1 -6 -4 -15 -7 -21 -7 -10 -14
-38 -34 -127 -5 -23 -8 -36 -23 -118 -13 -74 -7 -287 12 -378 63 -301 218
-534 459 -690 107 -68 257 -126 385 -148 12 -2 32 -6 45 -8 12 -2 38 -6 57
-10 107 -19 226 -36 360 -52 143 -16 424 -8 550 16 30 6 68 13 84 16 16 3 32
7 36 9 4 2 20 7 36 9 61 12 279 86 371 127 24 10 45 19 47 19 18 0 333 156
471 233 302 169 576 362 698 494 54 57 86 98 71 91 -25 -12 -152 -70 -169 -77
-91 -39 -292 -88 -435 -107 -25 -3 -56 -7 -69 -9 -136 -22 -733 -23 -861 -1
-14 3 -50 7 -80 10 -257 28 -469 133 -537 266 -34 68 -41 171 -15 229 59 130
171 232 359 325 278 139 656 208 1123 206 96 -1 195 -2 220 -4 25 -2 92 -7
150 -10 58 -4 128 -9 155 -11 222 -17 265 -21 395 -30 47 -3 105 -8 130 -10
81 -7 214 -17 270 -20 77 -5 316 -23 390 -30 25 -2 79 -7 120 -10 41 -3 86 -8
100 -10 14 -2 52 -7 85 -10 119 -12 215 -36 233 -58 26 -31 -65 -144 -153
-190 -80 -43 -232 -98 -335 -122 -8 -2 -45 -10 -81 -19 -70 -16 -102 -23 -158
-32 -18 -3 -43 -8 -55 -10 -22 -4 -63 -11 -110 -19 -16 -2 -30 -6 -33 -8 -6
-7 113 -127 172 -174 101 -80 213 -138 340 -176 97 -29 281 -32 382 -6 136 34
295 112 378 185 324 284 861 586 1470 827 199 79 232 91 459 167 77 26 141 51
143 57 7 19 -60 22 -372 17 -296 -5 -402 -8 -580 -19 -78 -4 -177 -9 -420 -20
-66 -3 -158 -8 -204 -10 -269 -15 -607 -28 -1046 -41 -319 -10 -1289 -10
-1505 0 -311 13 -444 21 -535 31 -22 2 -76 7 -120 10 -44 4 -91 8 -105 10 -14
2 -53 7 -87 10 -34 3 -70 8 -81 10 -10 2 -55 6 -98 10 -43 4 -90 8 -104 10
-14 2 -56 7 -95 10 -38 3 -83 8 -100 10 -16 2 -68 6 -115 10 -47 3 -103 8
-125 10 -113 12 -718 28 -728 19z"/>
<path d="M11373 12160 c-48 -11 -75 -32 -160 -123 -168 -177 -314 -315 -404
-379 -53 -38 -166 -103 -259 -149 -155 -75 -188 -92 -283 -144 -103 -56 -454
-298 -487 -335 -3 -3 -21 -17 -40 -30 -19 -13 -37 -27 -40 -30 -3 -3 -32 -28
-65 -55 -401 -332 -799 -755 -1059 -1125 -97 -137 -172 -263 -253 -418 -168
-326 -224 -420 -365 -617 -22 -32 -149 -177 -188 -215 -160 -160 -354 -281
-830 -521 -134 -67 -246 -128 -378 -205 -244 -141 -556 -361 -740 -522 -123
-108 -288 -281 -355 -372 -22 -30 -43 -57 -47 -60 -3 -3 -30 -43 -59 -89 -73
-114 -147 -276 -166 -360 -20 -89 -34 -167 -40 -220 -6 -69 -8 -273 -1 -306 2
-11 7 -42 10 -70 12 -84 16 -108 32 -170 101 -405 345 -788 694 -1089 194
-167 373 -279 580 -361 116 -46 136 -60 151 -105 21 -61 12 -119 -38 -245 -19
-49 -41 -97 -48 -105 -6 -8 -22 -35 -34 -59 -64 -126 -232 -372 -500 -731 -96
-129 -185 -248 -196 -263 -11 -15 -96 -129 -189 -253 -541 -723 -758 -1106
-757 -1336 0 -65 25 -131 63 -165 21 -20 127 -69 168 -78 8 -2 38 -10 67 -18
62 -16 193 -19 254 -6 114 26 237 113 341 243 71 88 181 280 269 471 57 126
64 140 216 515 30 74 61 149 68 165 7 17 41 100 75 185 34 85 67 169 75 185 7
17 32 73 55 125 95 218 247 499 322 595 103 133 150 178 215 207 60 27 107 3
120 -62 17 -80 -9 -239 -61 -375 -13 -33 -37 -96 -54 -140 -16 -44 -66 -174
-110 -290 -93 -244 -152 -423 -178 -540 -12 -57 -13 -212 -1 -244 40 -108 176
-134 317 -61 55 28 193 165 242 240 54 83 114 199 148 287 17 43 35 87 40 98
10 22 45 143 56 190 31 145 50 264 59 380 11 133 24 251 31 290 2 11 6 31 9
45 22 113 33 151 80 275 85 220 217 380 388 469 138 72 209 56 246 -57 13 -38
17 -162 6 -207 -3 -14 -8 -41 -11 -60 -15 -93 -100 -293 -158 -375 -84 -118
-179 -341 -206 -482 -20 -109 -23 -138 -23 -238 -1 -219 100 -350 230 -300 50
19 149 111 215 200 179 242 359 654 458 1045 31 124 76 354 85 435 3 28 7 66
10 85 21 163 21 379 1 610 -6 69 -18 175 -21 200 -2 14 -7 48 -10 75 -6 50
-10 74 -19 130 -3 17 -8 57 -11 90 -3 33 -8 69 -10 80 -2 11 -7 43 -10 70 -6
50 -11 84 -20 150 -10 72 -14 101 -20 150 -12 96 -24 193 -30 226 -2 13 -9 67
-15 119 -6 52 -13 115 -16 140 -3 25 -7 65 -9 90 -3 25 -7 70 -11 100 -3 30
-8 78 -10 105 -2 28 -6 68 -9 90 -2 22 -7 83 -11 135 -3 52 -7 113 -9 135 -24
300 -24 1066 0 1217 2 13 6 55 10 93 14 150 15 157 30 265 2 14 7 45 10 70 7
52 38 227 49 275 3 11 11 49 19 85 50 225 152 547 225 710 63 141 138 292 191
385 69 120 199 318 212 323 5 2 9 10 9 17 0 7 3 15 8 17 4 2 34 37 66 78 33
41 62 77 65 80 4 3 21 23 40 45 137 161 401 435 506 523 130 110 249 167 300
144 42 -19 55 -60 51 -163 -6 -167 -100 -467 -259 -824 -50 -112 -215 -432
-252 -491 -19 -30 -35 -57 -35 -59 0 -8 -107 -171 -184 -279 -233 -328 -433
-781 -526 -1191 -7 -27 -14 -58 -16 -67 -2 -10 -6 -28 -9 -40 -18 -87 -23
-111 -30 -153 -3 -16 -7 -41 -10 -55 -3 -14 -7 -41 -10 -60 -3 -19 -8 -42 -10
-50 -3 -13 -8 -49 -19 -160 -2 -14 -7 -56 -11 -95 -4 -38 -9 -83 -11 -100 -22
-220 -22 -761 1 -1035 6 -73 16 -182 20 -230 3 -25 7 -74 10 -110 6 -72 15
-154 20 -179 2 -9 6 -48 9 -86 4 -39 8 -81 11 -95 2 -14 7 -47 10 -75 3 -27 8
-63 10 -80 3 -16 11 -82 20 -145 8 -63 17 -126 20 -140 2 -14 6 -45 9 -70 3
-25 8 -55 10 -67 3 -12 8 -53 11 -90 4 -37 9 -75 10 -83 2 -8 6 -44 10 -80 4
-36 9 -74 11 -85 7 -37 17 -249 17 -370 1 -209 -16 -365 -55 -520 -11 -44 -21
-87 -23 -95 -5 -21 -49 -145 -74 -210 -12 -30 -65 -141 -118 -246 -52 -106
-94 -197 -91 -204 13 -39 198 216 295 405 71 138 174 394 188 468 2 9 6 21 9
25 3 5 7 19 10 33 2 13 16 71 29 129 27 113 52 262 63 375 14 147 7 528 -11
625 -3 14 -7 45 -10 70 -3 25 -10 70 -15 100 -16 91 -19 113 -25 173 -4 32 -8
68 -11 80 -2 12 -6 49 -9 83 -3 33 -7 69 -9 80 -9 49 -21 182 -30 354 -4 63
-9 149 -12 190 -6 88 -6 542 1 650 15 258 21 333 41 495 8 62 41 258 59 344
20 103 76 293 114 391 26 67 88 189 107 211 8 8 14 19 14 22 0 24 142 165 174
173 36 9 53 0 76 -38 17 -29 35 -130 33 -198 -1 -61 -14 -210 -23 -260 -5 -30
-11 -71 -14 -90 -6 -35 -11 -61 -21 -110 -3 -14 -7 -34 -9 -45 -12 -56 -39
-165 -51 -205 -100 -321 -156 -525 -170 -627 -3 -21 -10 -60 -15 -88 -5 -27
-12 -75 -16 -105 -10 -87 -13 -470 -4 -525 4 -27 16 -99 25 -160 22 -139 23
-147 45 -240 6 -27 14 -59 16 -70 2 -11 6 -31 10 -45 3 -14 8 -38 11 -55 8
-47 51 -152 53 -130 1 11 3 79 5 150 4 165 15 438 20 490 14 140 17 166 20
187 2 13 6 43 9 68 3 25 8 56 11 70 3 14 8 41 11 60 3 19 7 43 10 52 5 16 11
41 20 87 9 46 66 216 75 226 5 5 9 14 9 21 0 14 45 95 127 224 98 155 155 275
226 471 39 108 89 266 102 325 2 10 17 78 34 149 16 72 34 165 41 208 6 43 13
88 15 100 7 37 15 109 21 182 3 39 8 90 10 115 5 58 5 413 0 465 -30 304 -25
800 9 1030 2 17 7 46 9 65 18 120 30 175 58 260 49 151 119 226 185 198 16 -6
31 -11 34 -10 14 3 101 -82 124 -121 75 -130 59 -327 -43 -517 -95 -176 -116
-233 -128 -345 -2 -21 -7 -51 -9 -65 -6 -30 -6 -262 0 -305 2 -16 7 -57 10
-91 3 -33 8 -74 11 -90 3 -16 7 -38 9 -49 16 -114 59 -275 74 -275 9 0 28 94
37 179 3 26 6 57 9 71 2 14 6 43 10 65 6 40 51 257 60 285 2 8 9 34 15 57 25
105 118 284 182 353 43 45 105 134 131 185 32 66 73 190 87 262 5 32 12 69 15
83 29 138 20 583 -15 720 -5 19 -12 55 -15 80 -5 39 -30 155 -65 305 -9 39
-33 159 -44 220 -14 75 -21 180 -21 293 0 67 -2 122 -5 121 -3 -1 -20 -4 -37
-9z m-2709 -2556 c17 -45 -9 -312 -40 -416 -3 -10 -7 -30 -10 -45 -9 -51 -72
-257 -106 -343 -18 -47 -31 -88 -30 -92 1 -5 -2 -8 -7 -8 -5 0 -12 -12 -15
-26 -9 -34 -86 -193 -163 -334 -112 -208 -147 -329 -145 -514 1 -49 3 -101 6
-115 3 -14 8 -39 11 -56 9 -56 13 -71 40 -150 55 -166 159 -347 303 -530 40
-49 72 -93 72 -96 0 -12 -65 16 -230 100 -592 302 -662 332 -819 355 -151 22
-318 6 -466 -45 -340 -116 -607 -386 -763 -771 -98 -245 -133 -476 -108 -723
6 -52 8 -68 27 -150 42 -188 151 -394 276 -523 163 -167 416 -272 638 -264
441 16 738 228 802 572 9 45 5 174 -7 225 -6 28 -29 88 -51 134 -94 194 -288
312 -513 313 -125 0 -219 -34 -258 -94 -37 -57 -54 -187 -35 -268 43 -179 108
-334 167 -395 21 -22 40 -49 42 -60 15 -69 -83 -126 -221 -130 -244 -7 -430
131 -516 385 -14 41 -28 86 -30 100 -32 171 -34 189 -36 340 -1 137 12 247 47
375 3 11 6 25 8 30 8 33 53 139 82 196 63 120 215 293 313 356 122 78 227 119
391 153 48 10 264 7 315 -5 302 -66 560 -298 725 -649 50 -106 104 -263 114
-331 4 -23 9 -52 12 -65 7 -34 7 -246 0 -295 -59 -401 -311 -787 -709 -1083
-197 -147 -444 -206 -752 -179 -141 12 -333 55 -460 102 -38 15 -83 31 -100
37 -130 48 -364 198 -467 299 -125 122 -235 285 -333 492 -47 99 -104 254
-121 327 -40 174 -52 281 -49 415 2 66 6 129 8 140 3 11 8 40 13 65 4 25 8 47
9 50 1 3 5 19 9 35 13 52 58 168 88 228 147 296 430 545 842 741 83 40 167 78
186 86 143 54 513 252 660 353 66 46 182 130 205 148 267 218 440 397 601 624
35 50 68 95 74 102 5 7 10 14 10 17 0 2 22 40 48 83 61 97 242 456 242 478 0
3 49 112 82 185 22 47 73 130 79 130 4 0 10 -7 13 -16z"/>
<path d="M12610 12037 c0 -73 -3 -145 -5 -162 -10 -78 -17 -131 -20 -145 -2
-8 -6 -28 -9 -45 -6 -35 -52 -249 -67 -315 -6 -25 -12 -54 -13 -65 -2 -11 -6
-31 -9 -45 -4 -14 -9 -43 -12 -65 -3 -22 -7 -47 -10 -55 -4 -16 -12 -83 -22
-200 -13 -144 -6 -442 12 -510 2 -8 6 -33 10 -55 19 -131 113 -351 180 -421
50 -53 106 -128 137 -184 68 -124 144 -390 173 -605 4 -27 9 -59 10 -70 2 -11
6 -42 9 -70 18 -144 28 -164 49 -99 18 54 47 173 53 219 3 17 9 57 14 90 38
243 27 537 -25 686 -8 23 -39 85 -68 138 -28 52 -54 100 -56 106 -1 5 -13 37
-26 70 -49 126 -49 279 0 374 43 84 123 150 190 156 69 7 127 -78 178 -255 14
-47 27 -101 30 -120 22 -135 36 -249 43 -335 11 -136 10 -571 -1 -730 -15
-225 -10 -630 9 -745 2 -14 7 -52 11 -85 5 -53 23 -164 40 -250 3 -16 8 -43
11 -60 11 -60 65 -263 100 -375 79 -250 178 -466 299 -651 116 -177 162 -298
220 -569 12 -58 35 -217 40 -275 4 -38 8 -81 10 -95 7 -49 16 -218 20 -370 2
-85 5 -188 6 -228 1 -40 5 -70 9 -65 33 39 119 429 146 668 4 33 8 74 10 90 5
42 5 334 0 370 -2 17 -7 59 -11 95 -19 187 -63 383 -141 630 -53 167 -106 366
-120 445 -2 17 -7 36 -9 43 -8 22 -34 194 -42 277 -8 82 -8 244 0 280 19 91
69 122 131 82 78 -51 195 -218 250 -357 10 -25 23 -56 29 -70 5 -14 11 -29 13
-35 1 -5 12 -39 23 -74 39 -120 94 -373 116 -536 7 -53 16 -114 20 -145 2 -14
7 -61 11 -105 3 -44 8 -96 9 -115 18 -196 23 -624 11 -865 -11 -213 -23 -393
-31 -460 -2 -16 -6 -50 -9 -75 -3 -25 -8 -71 -11 -103 -4 -32 -8 -68 -10 -79
-3 -12 -7 -48 -10 -81 -3 -33 -7 -63 -9 -66 -2 -3 -7 -35 -11 -71 -4 -36 -8
-67 -10 -70 -2 -3 -6 -37 -10 -75 -4 -39 -10 -79 -12 -90 -9 -35 -11 -478 -3
-540 5 -33 11 -82 15 -110 4 -27 8 -63 11 -80 3 -26 26 -145 39 -200 67 -299
207 -629 368 -871 74 -111 167 -211 167 -180 0 18 -16 51 -105 221 -89 170
-190 435 -210 554 -3 19 -8 37 -10 41 -2 3 -7 33 -10 65 -4 33 -9 63 -11 66
-23 39 -22 538 1 734 2 16 6 50 9 75 3 25 8 68 12 95 3 28 9 75 14 105 5 30
12 79 15 109 4 30 8 61 10 70 1 9 6 43 9 76 4 33 11 85 16 115 5 30 11 80 14
110 4 30 10 89 16 130 5 41 12 100 15 130 4 30 8 66 10 80 2 14 7 63 10 110 4
47 9 92 10 100 2 9 6 61 10 115 4 55 8 116 10 135 24 245 25 790 0 1045 -12
126 -17 171 -30 268 -3 23 -8 59 -11 80 -3 21 -12 75 -20 120 -8 45 -17 91
-18 102 -6 35 -55 249 -67 290 -6 22 -18 61 -25 86 -8 25 -16 54 -19 65 -18
85 -136 388 -206 528 -98 196 -158 295 -294 486 -187 263 -388 640 -541 1015
-36 89 -119 333 -128 377 -3 13 -8 34 -11 48 -44 189 -32 305 32 328 98 34
323 -137 655 -499 47 -52 96 -105 108 -119 12 -14 31 -36 43 -50 12 -14 42
-50 67 -80 25 -30 47 -57 50 -60 12 -10 120 -158 168 -230 46 -70 182 -298
182 -306 0 -2 27 -59 59 -126 120 -247 250 -625 297 -862 2 -11 12 -63 23
-115 32 -154 56 -314 76 -493 3 -27 7 -67 10 -90 37 -337 38 -993 1 -1438 -3
-36 -8 -101 -11 -145 -3 -44 -8 -91 -10 -105 -2 -14 -7 -59 -11 -100 -8 -86
-9 -101 -19 -190 -4 -36 -8 -76 -10 -90 -3 -29 -15 -123 -20 -160 -2 -14 -7
-50 -10 -80 -3 -30 -8 -66 -10 -80 -2 -14 -7 -50 -10 -80 -3 -30 -8 -62 -10
-70 -2 -8 -7 -44 -10 -80 -4 -36 -9 -72 -10 -81 -2 -9 -6 -40 -10 -70 -3 -30
-8 -61 -10 -69 -2 -8 -7 -44 -10 -80 -3 -36 -8 -72 -10 -80 -2 -8 -11 -80 -20
-160 -8 -80 -17 -163 -20 -185 -25 -222 -25 -468 0 -665 12 -93 27 -189 36
-230 5 -25 12 -56 14 -70 48 -266 178 -648 314 -920 134 -269 276 -454 394
-514 110 -56 207 21 238 189 10 57 7 228 -6 285 -4 14 -11 45 -17 70 -36 158
-106 319 -203 468 -71 111 -143 276 -160 370 -32 178 -21 282 35 342 29 31 34
32 84 27 121 -12 294 -137 394 -285 139 -203 210 -448 237 -807 4 -44 8 -91
10 -105 2 -14 7 -47 10 -75 51 -418 270 -867 498 -1018 136 -91 289 -81 338
20 47 97 27 247 -69 533 -36 104 -149 406 -172 455 -18 38 -93 241 -116 313
-71 220 -57 382 33 382 150 0 416 -392 647 -955 37 -88 71 -169 76 -180 5 -11
62 -148 126 -305 366 -900 512 -1128 799 -1245 68 -28 213 -28 324 1 105 28
202 74 232 112 38 48 48 152 25 255 -33 144 -169 405 -355 677 -72 106 -228
327 -243 344 -5 6 -100 133 -211 281 -222 297 -362 482 -380 505 -7 8 -23 31
-37 50 -13 19 -28 40 -33 45 -27 33 -172 239 -243 345 -151 229 -220 363 -252
489 -36 139 -8 184 153 246 55 21 105 42 110 45 6 4 41 24 80 45 417 227 803
650 978 1076 98 237 142 451 140 684 -1 232 -40 402 -134 589 -43 84 -129 222
-170 272 -166 198 -278 308 -514 502 -98 81 -387 282 -405 282 -5 0 -10 3 -10
8 0 4 -9 12 -20 17 -10 6 -83 48 -162 94 -79 47 -235 132 -348 189 -113 57
-232 119 -265 137 -33 18 -96 52 -140 75 -170 92 -228 129 -335 215 -101 81
-182 163 -269 271 -39 49 -76 94 -81 101 -49 60 -260 416 -260 438 0 6 -4 15
-9 21 -5 5 -30 50 -56 99 -85 161 -107 198 -188 320 -214 320 -449 595 -783
915 -91 87 -221 205 -284 256 -19 16 -41 35 -49 42 -7 7 -72 59 -145 115 -265
206 -464 333 -671 432 -185 87 -253 124 -340 181 -119 79 -143 100 -345 305
-196 198 -219 217 -268 224 l-31 3 -1 -131z m2831 -2503 c25 -49 67 -138 93
-199 58 -130 170 -358 215 -433 17 -29 31 -55 31 -58 0 -2 34 -55 76 -117 107
-157 242 -324 355 -436 64 -64 178 -169 218 -201 25 -19 49 -40 55 -45 31 -30
236 -172 341 -238 159 -98 331 -187 545 -281 419 -184 610 -304 811 -508 188
-191 309 -420 352 -668 16 -93 19 -307 6 -392 -5 -29 -11 -69 -14 -88 -21
-135 -106 -368 -194 -535 -187 -356 -383 -533 -782 -708 -75 -34 -300 -97
-394 -111 -22 -4 -56 -9 -75 -12 -64 -10 -294 -12 -355 -3 -33 5 -73 11 -90
14 -93 14 -241 73 -318 127 -64 44 -213 168 -272 225 -242 236 -395 493 -467
783 -30 118 -31 377 -4 495 86 368 319 708 590 860 142 79 259 109 424 108
199 -2 430 -80 570 -193 65 -52 179 -181 228 -257 90 -141 154 -326 170 -493
26 -263 -11 -534 -95 -705 -94 -189 -246 -290 -446 -294 -115 -3 -192 21 -237
74 -33 38 -25 60 62 157 25 28 107 247 125 333 37 184 2 296 -112 352 -47 23
-68 26 -151 27 -117 1 -162 -6 -239 -37 -303 -123 -439 -455 -316 -767 89
-225 320 -384 623 -426 83 -12 258 -9 320 5 227 52 395 160 534 341 50 64 104
156 130 220 10 25 22 54 27 65 9 20 47 158 53 192 21 110 27 320 13 438 -32
266 -191 628 -355 808 -194 212 -386 328 -636 384 -93 20 -295 24 -377 7 -35
-8 -73 -16 -85 -18 -58 -12 -232 -95 -804 -386 -41 -21 -88 -42 -105 -46 -28
-7 -29 -6 -15 12 8 10 17 21 21 24 3 3 18 23 34 45 16 22 34 45 39 50 6 6 16
17 21 26 6 8 36 54 68 102 53 80 128 218 126 233 0 4 3 10 8 13 14 9 82 224
91 285 9 67 9 279 -2 336 -12 70 -44 157 -93 255 -25 50 -49 95 -53 100 -4 6
-35 64 -68 130 -144 289 -230 547 -287 860 -9 50 -15 217 -9 242 4 13 11 22
18 20 6 -2 32 -44 57 -93z"/>
<path d="M16457 11874 c-1 -1 -72 -4 -157 -8 -85 -4 -171 -9 -190 -10 -203
-18 -316 -44 -293 -67 10 -10 42 -15 173 -24 47 -3 103 -7 125 -10 22 -2 78
-6 125 -9 47 -4 101 -8 120 -11 19 -2 69 -6 110 -10 70 -5 101 -8 205 -20 22
-2 67 -7 100 -10 33 -4 71 -8 85 -10 14 -2 48 -7 75 -10 124 -16 239 -37 298
-55 71 -22 110 -48 212 -144 119 -111 222 -153 425 -172 53 -5 290 -5 330 0
19 3 62 7 95 11 132 14 256 54 302 97 14 13 23 33 23 50 0 72 -184 178 -455
261 -113 34 -376 83 -553 102 -26 3 -65 7 -87 10 -100 12 -263 24 -433 31
-117 5 -630 12 -635 8z"/>
<path d="M7009 11856 c-2 -2 -65 -7 -139 -10 -207 -11 -310 -20 -475 -41 -22
-3 -58 -8 -80 -11 -176 -23 -476 -88 -526 -114 -10 -6 -19 -8 -19 -6 0 7 -125
-47 -205 -89 -92 -47 -134 -81 -150 -119 -12 -27 -11 -34 2 -56 9 -14 24 -31
32 -37 20 -16 155 -60 207 -67 21 -3 68 -10 104 -15 71 -10 424 -7 480 3 168
32 233 65 357 179 95 88 155 124 233 143 45 10 38 9 93 18 27 4 59 9 70 12 12
2 45 6 72 9 28 3 61 7 75 10 57 8 109 15 170 20 36 4 76 8 90 10 35 6 113 13
195 20 39 3 86 8 105 10 31 4 121 11 235 20 22 2 81 6 130 9 105 7 145 14 145
26 0 18 -62 38 -140 46 -14 1 -45 5 -70 8 -25 4 -72 9 -105 12 -71 6 -880 15
-886 10z"/>
<path d="M16646 10554 c372 -362 936 -931 1155 -1164 208 -222 402 -434 470
-515 32 -38 82 -95 104 -119 44 -48 208 -253 282 -351 108 -145 150 -206 233
-348 154 -260 279 -304 402 -142 63 83 134 283 154 435 3 25 8 54 10 65 18 93
24 334 12 430 -16 118 -19 135 -39 192 -57 168 -183 328 -384 488 -27 22 -52
42 -55 45 -13 13 -135 94 -219 145 -225 136 -505 267 -961 452 -166 68 -207
84 -275 114 -58 25 -456 187 -630 257 -230 92 -339 132 -362 132 -9 0 37 -52
103 -116z"/>
<path d="M7445 10645 c-28 -8 -145 -52 -260 -98 -230 -93 -1161 -479 -1212
-502 -17 -8 -34 -15 -37 -15 -14 0 -329 -146 -436 -202 -179 -94 -407 -236
-495 -309 -148 -123 -196 -170 -266 -263 -96 -126 -149 -247 -166 -376 -9 -76
-9 -373 0 -442 15 -107 26 -164 52 -273 23 -96 75 -215 126 -287 49 -68 137
-98 199 -67 75 37 120 93 235 287 95 160 346 496 492 657 10 12 43 50 73 85
30 36 61 72 70 80 8 8 30 33 49 55 30 35 111 124 241 265 312 338 873 911
1294 1319 53 52 95 95 94 96 -2 2 -26 -3 -53 -10z"/>
</g>
</svg>
